<?xml version="1.0" encoding="UTF-8"?>
<svg id="Layer_2" data-name="Layer 2" xmlns="http://www.w3.org/2000/svg" viewBox="0 0 857.43 267.06">
  <defs>
    <style>
      .cls-1 {
        fill: #005241;
      }
    </style>
  </defs>
  <g id="Layer_1-2" data-name="Layer 1">
    <g>
      <path class="cls-1" d="M208.05,0c-4.48,0-9.72.03-15.71.13-27.28.43-50.47,11.34-68.93,32.44-14.54,16.62-23.88,36.71-32.12,54.43-1.25,2.69-2.48,5.32-3.69,7.87h.02c-14.53,29.73-28.03,48.65-54.95,49.08-12.89.2-21.83.1-27.74.04-2.05-.02-3.69-.04-4.93-.04v45.67c1.12,0,2.59.02,4.42.04,3.22.03,7.64.08,13.27.08,4.48,0,9.72-.03,15.71-.13,27.28-.43,50.47-11.34,68.93-32.44,14.54-16.62,23.88-36.71,32.12-54.43,1.25-2.69,2.48-5.32,3.69-7.87h-.02c14.53-29.73,28.03-48.65,54.95-49.08,12.89-.2,21.83-.1,27.74-.04,2.05.02,3.69.04,4.93.04V.12c-1.12,0-2.59-.02-4.42-.04-3.22-.03-7.64-.08-13.27-.08Z"/>
      <path class="cls-1" d="M237.08,94.88c0,52.25,41.97,94.76,93.55,94.76h96.75V.12h-96.75c-51.58,0-93.55,42.51-93.55,94.76ZM381.82,45.79v98.26h-50.69c-26.75,0-48.51-22.04-48.51-49.13s21.76-49.13,48.51-49.13h50.69Z"/>
      <path class="cls-1" d="M811.89.08v90.71c0,28.73-22.52,52.71-50.89,53.15-28.87.45-52.49-23.21-52.49-52.35V.08h-45.54v89.72c0,54.41,43.95,99.94,97.67,99.7,8.26-.04,16.28-1.12,23.94-3.13-20.06,21.66-47.94,35.09-78.78,35.09v45.61c32.22,0,62.11-10.24,86.7-27.66,39.33-29.31,64.9-78.07,64.94-133.29V.08h-45.54Z"/>
      <path class="cls-1" d="M450.05,189.65h45.55c.39-79.58,65.02-143.97,144.69-143.97V.12c-104.83,0-189.85,84.79-190.24,189.52Z"/>
    </g>
  </g>
</svg>