<?xml version="1.0" encoding="UTF-8"?>
<svg id="Layer_1" xmlns="http://www.w3.org/2000/svg" xmlns:xlink="http://www.w3.org/1999/xlink" version="1.1" viewBox="0 0 1000 244.6">
  <!-- Generator: Adobe Illustrator 30.2.1, SVG Export Plug-In . SVG Version: 2.1.1 Build 1)  -->
  <defs>
    <style>
      .st0 {
        fill: none;
      }

      .st1 {
        fill: #008034;
      }

      .st2 {
        fill: url(#linear-gradient1);
      }

      .st3 {
        fill: #005d45;
      }

      .st4 {
        fill: url(#radial-gradient);
      }

      .st5 {
        fill: url(#linear-gradient);
      }

      .st6 {
        clip-path: url(#clippath);
      }
    </style>
    <clipPath id="clippath">
      <rect class="st0" x="52.5" y="12.8" width="895.1" height="218.9"/>
    </clipPath>
    <radialGradient id="radial-gradient" cx="-495.5" cy="615.7" fx="-495.5" fy="615.7" r="5.1" gradientTransform="translate(14807.5 16903.7) scale(28.2 -27.3)" gradientUnits="userSpaceOnUse">
      <stop offset="0" stop-color="#000" stop-opacity="0"/>
      <stop offset="0" stop-color="#000" stop-opacity="0"/>
      <stop offset=".2" stop-color="#000" stop-opacity="0"/>
      <stop offset=".8" stop-color="#000" stop-opacity=".3"/>
      <stop offset="1" stop-color="#000"/>
    </radialGradient>
    <linearGradient id="linear-gradient" x1="753.9" y1="-718.5" x2="946.4" y2="-617" gradientTransform="translate(0 -551.4) scale(1 -1)" gradientUnits="userSpaceOnUse">
      <stop offset="0" stop-color="#c68d00"/>
      <stop offset=".2" stop-color="#ffd740"/>
      <stop offset=".3" stop-color="#f4c833"/>
      <stop offset=".5" stop-color="#d7a313"/>
      <stop offset=".6" stop-color="#c68d00"/>
      <stop offset="1" stop-color="#ffd740"/>
    </linearGradient>
    <linearGradient id="linear-gradient1" x1="808.3" y1="-592.9" x2="869.6" y2="-762" gradientTransform="translate(0 -551.4) scale(1 -1)" gradientUnits="userSpaceOnUse">
      <stop offset="0" stop-color="#c68d00"/>
      <stop offset="0" stop-color="#d2a32a"/>
      <stop offset="0" stop-color="#dfb955"/>
      <stop offset=".2" stop-color="#eacc78"/>
      <stop offset=".2" stop-color="#f2da94"/>
      <stop offset=".3" stop-color="#f8e4a8"/>
      <stop offset=".3" stop-color="#fbeab4"/>
      <stop offset=".4" stop-color="#fdedb8"/>
      <stop offset=".6" stop-color="#fdedb8"/>
      <stop offset=".7" stop-color="#f5e09f"/>
      <stop offset=".8" stop-color="#e3c061"/>
      <stop offset="1" stop-color="#c68d00"/>
    </linearGradient>
  </defs>
  <g class="st6">
    <g>
      <path class="st3" d="M71.5,80.6c2,0,3.4-1.5,3.4-3.4s-1.4-3.4-3.4-3.4-3.4,1.5-3.4,3.4,1.4,3.4,3.4,3.4Z"/>
      <path class="st3" d="M62.2,80.6c1.9,0,3.4-1.5,3.4-3.4s-1.4-3.4-3.4-3.4-3.4,1.5-3.4,3.4,1.2,3.4,3.4,3.4Z"/>
      <path class="st3" d="M109.9,93.4c0,1.9,1.4,3.2,3.7,3.2s3.7-1.9,3.7-3.9c0-4.3-4.5-7.3-9.3-7.3-8.1,0-15,6.2-15,14.9s2.5,9.8,6.3,12.4h-17.5c-3-.2-3.4-3.5-3.4-5.2v-16.9c0-1.4,0-3.1.5-4.7h-3.2c-.5.5-.4.7-.5,1-.2.7-.6,1.6-.7,1.6,0,0-.4-.2-1.1-.7-1.5-1-4-2.6-7.7-2.6-8.2,0-13.3,7.3-13.3,14.9s5.1,15.2,11.9,15.2,8.5-4,9.4-6.8c0,6,3.6,6.7,8.1,6.8h25.6c4,0,7-1.2,9.4-3.6l-1.6-1.1c-1.7,1.5-3.9,2.4-6.6,2.4-6.5,0-9.2-5.6-9.2-13.2s3-12.2,8.8-12.2,5.1,1.4,6,3.1c-.5,0-.9-.1-1.2-.1-2,0-3,1-3,2.9M72.2,107.2c-1,3.5-3.9,5.8-7,5.8s-6.8-3-6.8-12.6,2.4-12.9,7.3-12.9,7.2,6.2,7.2,11.7-.1,6-.7,7.8"/>
      <path class="st3" d="M130.9,115.2v-41.6l-8.5,1.6c2.7.9,2.7,1.4,2.7,2.9v37.2h5.7Z"/>
      <path class="st3" d="M151.2,86.2l-8.6,1.6c2.9.9,2.9,1.4,2.9,3v16.5c-.5,12.3-5.2,16.9-14.5,19.4,2.4.2,3.9.2,4.7.2,14.5,0,15.7-12.9,15.7-24.6v-16.3h-.1Z"/>
      <path class="st3" d="M166.3,80.9c1.9,0,3.4-1.5,3.4-3.4s-1.5-3.4-3.4-3.4-3.4,1.5-3.4,3.4,1.5,3.4,3.4,3.4Z"/>
      <path class="st3" d="M184.5,78.1v28.5c0,3.9-1.5,6.2-5.1,6.2h-9.7c.5-3.4.6-7,.6-10.4v-16.3l-8.6,1.6c2.7.9,2.9,1.4,2.9,3v16.5c-.5,12.3-5.1,16.9-14.5,19.4,2.4.2,3.9.2,4.7.2,9.1,0,12.9-5.1,14.4-11.7h11.6c5.5,0,9.4-3,9.4-8.5v-33.2l-8.6,1.6c2.9.9,2.9,1.4,2.9,2.9"/>
      <path class="st3" d="M198.7,78.1v37.2h5.7v-41.6l-8.5,1.6c2.7.9,2.7,1.4,2.7,2.9"/>
      <path class="st3" d="M211.5,105c0,6.2,5.6,10.1,9.9,10.2h.4c4.7,0,6.7-2.5,8.1-4.6-1.2,12.2-8.5,14.8-13.9,16l-1.5.2c2.4.2,4.3.4,5.3.4,7,0,15.8-2.7,15.8-24.9v-16h-5c-11.1,0-18.9,7.3-18.9,18.6M229.7,103.4c0,5.1-3,9.7-6.8,9.8-3.7-.1-5.7-4.7-5.7-8.6,0-9.7,6.1-16.3,11.8-16.3h.7v15Z"/>
      <path class="st3" d="M266.7,85.2c-8.6,0-13.7,7.3-13.7,15s5.1,14.9,13.7,14.9,13.7-7.3,13.7-14.9-5.1-15-13.7-15ZM266.7,113c-5.2,0-7.5-4.6-7.5-12.7s2.4-12.8,7.5-12.8,7.5,4.5,7.5,12.8-2.4,12.7-7.5,12.7Z"/>
      <path class="st3" d="M314,121.2c-2,0-3.4,1.5-3.4,3.2s1.4,3.4,3.4,3.4,3.4-1.5,3.4-3.4-1.4-3.2-3.4-3.2Z"/>
      <path class="st3" d="M304.6,121.2c-2,0-3.4,1.5-3.4,3.2s1.2,3.4,3.4,3.4,3.4-1.5,3.4-3.4-1.4-3.2-3.4-3.2Z"/>
      <path class="st3" d="M375.8,78v28.6c0,3.7-1.5,6.2-4.8,6.2h-5c-2.9,0-5.2-2.7-6.3-5.8.1-.7.2-1.5.2-2.4,0-6-4.2-13.9-12.1-13.9s-11.2,6-12.7,12.1c-.9,3.2-1.9,7.2-3.9,9.1-.7.6-1.9.9-2.5,1h-5.1c-4.5,0-7.2-6-7.2-10.1v-16.7l-8.6,1.6c2.6.9,2.9,1.1,2.9,2.6v16.4c0,3.7-1.4,6.1-4.8,6.1h-5.1c-2.7-.2-4.2-2-4.2-5.5v-33.7l-10.3.5v2.1c3.7,0,4.7.6,4.7,2.1v28.6c0,6.2,4.1,8.2,9.6,8.2h6.6c4,0,8.1-1.1,9.6-5.1,2,3.1,4.8,5.1,8.1,5.1h4c3.5,0,5.3-1.1,6.8-2.7,2,2.5,4.6,5.6,10.6,5.6s10.3-3.2,12.2-7.2c2.2,2.9,4.7,4.3,8.9,4.3h4.7c5.5,0,9.4-3,9.4-8.5v-33.3l-8.6,1.6c2.9.9,3,1.4,3,2.9M346.4,115.7c-4,0-7-3.4-8.6-5.5,0-.1-.2-.4-.4-.4,1.2-2.4,1.9-4.7,2.4-7v-.4c1.4-5.1,2.7-9.8,6.8-9.8h.2c4.7.2,7,6,7,12.2s-3.5,10.8-7.6,10.8"/>
      <path class="st3" d="M390.1,78.1v37.2h5.7v-41.6l-8.5,1.6c2.7.9,2.7,1.4,2.7,2.9"/>
      <path class="st3" d="M402.9,105c0,6.2,5.6,10.1,9.9,10.2h.4c4.7,0,6.7-2.5,8.1-4.6-1.2,12.2-8.5,14.8-13.9,16l-1.5.2c2.4.2,4.3.4,5.3.4,7,0,15.8-2.7,15.8-24.9v-16h-5c-11.1,0-18.9,7.3-18.9,18.6M421.1,103.4c0,5.1-3,9.7-6.8,9.8-3.7-.1-5.7-4.7-5.7-8.6,0-9.7,6.1-16.3,11.8-16.3h.7v15Z"/>
      <path class="st3" d="M454,80.6c1.9,0,3.4-1.5,3.4-3.4s-1.4-3.4-3.4-3.4-3.4,1.5-3.4,3.4,1.2,3.4,3.4,3.4Z"/>
      <path class="st3" d="M463.5,80.6c2,0,3.4-1.5,3.4-3.4s-1.4-3.4-3.4-3.4-3.4,1.5-3.4,3.4,1.4,3.4,3.4,3.4Z"/>
      <path class="st3" d="M494.9,77.1h-3c-2.4,0-4-3-4-5s.7-2.9,1.9-2.9.9,0,1.1.5c-.5.5-1,1.1-1,1.6,0,1,.9,1.6,2.1,1.6s2.1-.4,2.1-1.9-1.9-3.5-4.2-3.5c-3.5,0-5.3,2.4-5.3,5.3s1.2,3.2,2.5,4.2h-2.9l-.7,2.1h11.7v-2.1h-.2Z"/>
      <path class="st3" d="M512.2,121.2c-2,0-3.4,1.5-3.4,3.2s1.4,3.4,3.4,3.4,3.4-1.5,3.4-3.4-1.4-3.2-3.4-3.2Z"/>
      <path class="st3" d="M502.9,121.2c-2,0-3.4,1.5-3.4,3.2s1.2,3.4,3.4,3.4,3.4-1.5,3.4-3.4-1.5-3.2-3.4-3.2Z"/>
      <path class="st3" d="M533.2,120.5c-1.9,0-3.4,1.5-3.4,3.4s1.5,3.4,3.4,3.4,3.4-1.5,3.4-3.4-1.5-3.4-3.4-3.4Z"/>
      <path class="st3" d="M552.6,78.1v28.5c0,3.9-1.5,6.2-5.1,6.2h-2.1c-4.6,0-7.2-6-7.2-10.1v-16.7l-8.6,1.6c2.6.9,2.9,1.1,2.9,2.6v16.4c0,3.7-1.5,6.1-4.8,6.1h-5.5c-4.5,0-7.2-6-7.2-10.1v-16.7l-8.6,1.6c2.6.9,2.9,1.1,2.9,2.6v16.4c0,3.7-1.4,6.1-4.8,6.1h-3.6c-4.5,0-7.2-6-7.2-10.1v-16.7l-8.6,1.6c2.6.9,2.9,1.1,2.9,2.6v16.4c0,3.7-1.5,6.1-4.8,6.1h-9.1c-3-.2-3.4-3.5-3.4-5.2v-16.9c0-1.4,0-3.1.5-4.7h-3.2c-.5.5-.4.7-.5,1-.2.7-.6,1.6-.7,1.6,0,0-.4-.2-1.1-.7-1.5-1-4-2.6-7.7-2.6-8.2,0-13.3,7.3-13.3,14.9s5.1,15.2,11.9,15.2,8.5-4,9.4-6.8c0,6,3.6,6.7,8.1,6.8h10.2c4,0,8.1-1.1,9.6-5.1,2,3,4.6,4.8,7.7,5.1h4.1c4,0,8.1-1.1,9.6-5.1,2,3.1,4.8,5.1,8.1,5.1h5.6c4,0,8.1-1.1,9.6-5.1,2,3,4.6,4.8,7.7,5.1h2.7c5.5,0,9.4-3,9.4-8.5v-33.2l-8.6,1.6c2.9.9,2.9,1.4,2.9,2.9M464.2,107.2c-1,3.5-3.9,5.8-7,5.8s-6.8-3-6.8-12.6,2.4-12.9,7.3-12.9,7.2,6.2,7.2,11.7-.1,6-.7,7.8"/>
      <path class="st3" d="M566.9,78.1v37.2h5.7v-41.6l-8.5,1.6c2.7.9,2.7,1.4,2.7,2.9"/>
      <path class="st3" d="M608.6,79.2c1.9,0,3.4-1.5,3.4-3.4s-1.4-3.4-3.4-3.4-3.4,1.5-3.4,3.4,1.4,3.4,3.4,3.4Z"/>
      <path class="st3" d="M603.8,85.2c-8.6,0-13.7,7.3-13.7,15s5.1,14.9,13.7,14.9,13.7-7.3,13.7-14.9-5.1-15-13.7-15ZM603.8,113c-5.2,0-7.5-4.6-7.5-12.7s2.4-12.8,7.5-12.8,7.5,4.5,7.5,12.8-2.4,12.7-7.5,12.7Z"/>
      <path class="st3" d="M599.2,79.2c2,0,3.4-1.5,3.4-3.4s-1.4-3.4-3.4-3.4-3.2,1.5-3.2,3.4,1.2,3.4,3.2,3.4Z"/>
      <path class="st3" d="M632,90.8v16.5c-.5,12.3-5.2,16.9-14.5,19.4,2.4.2,3.9.2,4.7.2,14.5,0,15.7-12.9,15.7-24.6v-16.3l-8.6,1.6c2.9.9,2.9,1.4,2.9,3"/>
      <path class="st3" d="M652.1,115.2v-41.6l-8.5,1.6c2.7.9,2.7,1.4,2.7,2.9v37.2h5.7Z"/>
      <path class="st3" d="M666.7,90.4v16.5c-.5,12.3-5.2,16.9-14.5,19.4,2.4.2,3.9.4,4.7.4,14.5,0,15.7-12.9,15.7-24.6v-16.2l-8.6,1.6c2.9.9,2.9,1.4,2.9,2.9"/>
      <path class="st3" d="M669.1,72.6c-1.9,0-3.4,1.5-3.4,3.4s1.5,3.4,3.4,3.4,3.4-1.5,3.4-3.4-1.5-3.4-3.4-3.4Z"/>
      <path class="st3" d="M698.3,86.4c-11.1,0-18.9,7.3-18.9,18.6s5.6,10.1,9.9,10.2h.4c4.7,0,6.7-2.5,8.1-4.6-1.2,12.2-8.5,14.8-13.9,16l-1.5.2c2.4.2,4.3.4,5.3.4,7,0,15.8-2.7,15.8-24.9v-16h-5.2,0ZM697.6,103.4c0,5.1-3,9.7-6.8,9.8-3.7-.1-5.7-4.7-5.7-8.6,0-9.7,6.1-16.3,11.8-16.3h.7v15Z"/>
      <path class="st3" d="M56,150.4c0-3.2-.5-3.1-3.5-3.7v-.7h7.8l6.8,19.3h0l6.7-19.3h4.7v23.5h-3.5v-20.9h0l-7.3,20.9h-2.5l-7.2-20.6h0v20.6h-2.2v-19h.1Z"/>
      <path class="st3" d="M84.3,157.7c0-2.5-.5-3-2.7-3.1v-.7l6.1-1.1v16.7h-3.5v-11.7h.1ZM83.9,147.9c0-1.2,1-2.1,2.2-2.1s2.2,1,2.2,2.1-1,2.2-2.2,2.2-2.1-1-2.1-2.2h-.1Z"/>
      <path class="st3" d="M93.1,157.7c0-2.5-.6-3-2.7-3.1v-.7l6.2-1.1v4.5h0c.5-1.2,2.4-4.5,5.8-4.5s4.2,2.2,4.2,5v11.7h-3.5v-9.1c0-2.7,0-5.2-2.4-5.2s-4.2,3.2-4.2,5.7v8.6h-3.5v-11.7h0Z"/>
      <path class="st3" d="M111.9,157.7c0-2.5-.5-3-2.7-3.1v-.7l6.1-1.1v16.7h-3.5v-11.7h.1ZM111.5,147.9c0-1.2,1-2.1,2.2-2.1s2.2,1,2.2,2.1-1,2.2-2.2,2.2-2.1-1-2.1-2.2h-.1Z"/>
      <path class="st3" d="M128.4,156c-.5-.4-2.2-1.7-4.1-1.7s-2.5.4-2.5,1.9c0,3.4,7.6,3.4,7.6,8.7s-2.9,4.8-6.2,4.8-3.6-.4-4.5-.6v-2.7c1,.7,2.6,1.9,4.6,1.9s3-1.1,3-2.4c0-3.5-7.6-3.6-7.6-8.5s1.7-4.7,5.8-4.7,3.4.5,3.9.6v2.6h0Z"/>
      <path class="st3" d="M141.5,169.5c-.7,0-1.6.2-2.4.2-3.4,0-5.2-.5-5.2-4.5v-10.7h-2.7v-1.4h2.7v-2.7l3.5-3.1v5.8h4.6v1.4h-4.6v10.2c0,2.5.1,3.5,2.9,3.5s.9,0,1.2,0v1.4h0Z"/>
      <path class="st3" d="M144.7,157.7c0-2.5-.5-3-2.7-3.1v-.7l6.2-1.1v4.6h0c.5-1.6,1.6-4.6,4.3-4.6s1.2,0,1.9,0v3.4c-.5,0-1.2-.4-1.7-.4-3.5,0-4.5,2.7-4.5,5.2v8.3h-3.5v-11.7h0Z"/>
      <path class="st3" d="M164.4,170.8c-1.1,2.7-2.2,5.8-6.1,5.8s-4.7-2.9-4.8-4.5h4c0,1,.1,2.6,1.9,2.6s2.2-1.7,2.7-3l.5-1.2-5.6-13.4c-.9-2.1-1.4-3-3.7-3.1v-.7h6l5.1,12.9,5-12.9h2l-6.8,17.6h0Z"/>
      <path class="st3" d="M183.1,161.3c0-5.8,2.5-8.6,7.5-8.6s7.5,3.5,7.5,8.6-2.4,8.5-7.5,8.5-7.5-3.6-7.5-8.5ZM190.5,168.7c3.4,0,3.7-3.9,3.7-7.3s-.4-7.3-3.7-7.3-3.7,4.2-3.7,7.3.2,7.3,3.7,7.3Z"/>
      <path class="st3" d="M202.5,154.6h-2.9v-1.4h2.9v-2.4c0-2.7,1.2-5.8,5.3-5.8s6,1.6,6.3,4.1h-3.9c0-1.2-.5-3-2.2-3s-2.1,2.2-2.1,3.9v3.1h4.6v1.4h-4.6v14.9h-3.5v-14.9h0Z"/>
      <path class="st3" d="M223.7,150.7c0-2.3-1.1-3.6-3.4-4v-.7h16.7v5.2h-.9c0-2.7-1.5-3.5-3.7-3.5h-2.7c-1.7,0-2.2,0-2.2,1.9v7h4.2c2.4,0,2.6-1.5,2.9-2.7h1v7.3h-1c0-1.9-.7-3-2.9-3h-4.2v7.8c0,2,.5,2,2.2,2h3.9c2,0,2.9-.7,3.1-3.5h1v5.1h-13.9v-18.8h0Z"/>
      <path class="st3" d="M241.7,157.7c0-2.5-.6-3-2.7-3.1v-.7l6.2-1.1v4.5h0c.5-1.2,2.4-4.5,5.8-4.5s4.2,2.2,4.2,5v11.7h-3.5v-9.1c0-2.7,0-5.2-2.4-5.2s-4.2,3.2-4.2,5.7v8.6h-3.5v-11.7h0Z"/>
      <path class="st3" d="M260.1,157.1c-.9-2.4-1.2-3-3.6-3.1v-.7h5.8l4.8,12.3,4.7-12.3h2l-6.2,16.3h-2.5l-5-12.4h-.1Z"/>
      <path class="st3" d="M277.3,157.7c0-2.5-.5-3-2.7-3.1v-.7l6.1-1.1v16.7h-3.5v-11.7h.1ZM276.8,147.9c0-1.2,1-2.1,2.2-2.1s2.2,1,2.2,2.1-1,2.2-2.2,2.2-2.1-1-2.1-2.2h-.1Z"/>
      <path class="st3" d="M285.7,157.7c0-2.5-.5-3-2.7-3.1v-.7l6.2-1.1v4.6h0c.5-1.6,1.6-4.6,4.3-4.6s1.2,0,1.9,0v3.4c-.5,0-1.2-.4-1.7-.4-3.5,0-4.5,2.7-4.5,5.2v8.3h-3.5v-11.7h0Z"/>
      <path class="st3" d="M295.9,161.3c0-5.8,2.5-8.6,7.5-8.6s7.5,3.5,7.5,8.6-2.4,8.5-7.5,8.5-7.5-3.6-7.5-8.5ZM303.4,168.7c3.4,0,3.7-3.9,3.7-7.3s-.4-7.3-3.7-7.3-3.7,4.2-3.7,7.3.2,7.3,3.7,7.3Z"/>
      <path class="st3" d="M314.8,157.7c0-2.5-.6-3-2.7-3.1v-.7l6.2-1.1v4.5h0c.5-1.2,2.4-4.5,5.8-4.5s4.2,2.2,4.2,5v11.7h-3.5v-9.1c0-2.7,0-5.2-2.4-5.2s-4.2,3.2-4.2,5.7v8.6h-3.5v-11.7h0Z"/>
      <path class="st3" d="M333.3,157.7c0-2.5-.5-3-2.7-3.1v-.7l6.2-1.1v4.2h0c.6-1.2,2.2-4.2,5.3-4.2s4,2.4,4.2,4h0c.7-1.4,2-4,5.2-4s4.5,4.1,4.5,6.6v10.1h-3.5v-9.6c0-2.1,0-4.7-2.4-4.7s-3.9,3.7-3.9,6.2v8.1h-3.5v-9.1c0-2.7,0-5.2-2.4-5.2s-3.9,3.2-3.9,5.7v8.6h-3.5v-11.7h.1Z"/>
      <path class="st3" d="M372.7,168.9c-.6.2-2.5,1-4.8,1-5.3,0-8.5-3.2-8.5-9.1s2.6-8,7.3-8,6.5,4.3,6.5,6.7h-9.9c0,3.5,1.4,8.5,6.3,8.5s2.7-.4,3.2-.6v1.5h-.1ZM369.6,158.1c0-.9,0-4.1-3.1-4.1s-3.4,2.7-3.4,4.1h6.5Z"/>
      <path class="st3" d="M376.5,157.7c0-2.5-.6-3-2.7-3.1v-.7l6.2-1.1v4.5h0c.5-1.2,2.4-4.5,5.8-4.5s4.2,2.2,4.2,5v11.7h-3.5v-9.1c0-2.7,0-5.2-2.4-5.2s-4.2,3.2-4.2,5.7v8.6h-3.5v-11.7h0Z"/>
      <path class="st3" d="M403.2,169.5c-.7,0-1.6.2-2.4.2-3.4,0-5.2-.5-5.2-4.5v-10.7h-2.7v-1.4h2.7v-2.7l3.5-3.1v5.8h4.6v1.4h-4.6v10.2c0,2.5.1,3.5,2.9,3.5s.9,0,1.2,0v1.4h0Z"/>
      <path class="st3" d="M418.8,150.4c-.7-3.2-1-3.1-4-3.7v-.7h6.3l4.6,19h0l5.5-19h2.4l6.2,19h0l3.9-19h2.2l-4.8,23.5h-3.4l-6.1-18.6h0l-5.3,18.6h-3.2l-4.3-19h.1Z"/>
      <path class="st3" d="M456.6,167.4c-.6.7-1.9,2.5-4.5,2.5s-4.6-2-4.6-4c0-5,7-5.3,9.2-5.3v-1.7c0-2.2,0-4.6-2.2-4.6s-2.5,2-2.5,3.6h-4.1c.4-2.4,1.5-4.7,6.6-4.7s5.7,2.6,5.7,6v10.7h-3.5v-2.1h0v-.2h-.1ZM456.6,161.7c-1.2,0-5.3.2-5.3,3.5s.7,2.7,2.1,2.7c2,0,3.2-1.9,3.2-4.2v-2h0Z"/>
      <path class="st3" d="M473,169.5c-.7,0-1.6.2-2.4.2-3.4,0-5.2-.5-5.2-4.5v-10.7h-2.7v-1.4h2.7v-2.7l3.5-3.1v5.8h4.6v1.4h-4.6v10.2c0,2.5.1,3.5,2.9,3.5s.9,0,1.2,0v1.4h0Z"/>
      <path class="st3" d="M488.1,168.9c-.6.2-2.5,1-4.8,1-5.3,0-8.6-3.2-8.6-9.1s2.6-8,7.3-8,6.5,4.3,6.5,6.7h-9.9c0,3.5,1.4,8.5,6.3,8.5s2.7-.4,3.2-.6v1.5h0ZM485,158.1c0-.9,0-4.1-3.1-4.1s-3.4,2.7-3.4,4.1h6.5Z"/>
      <path class="st3" d="M491.7,157.7c0-2.5-.5-3-2.7-3.1v-.7l6.2-1.1v4.6h0c.5-1.6,1.6-4.6,4.3-4.6s1.2,0,1.9,0v3.4c-.5,0-1.1-.4-1.7-.4-3.5,0-4.5,2.7-4.5,5.2v8.3h-3.5v-11.7h0Z"/>
      <path class="st3" d="M553.8,150.4c.2-.6.6-1.9.6-2.1,0-1.4-1.2-1.5-2.7-1.6v-.7h6.6l8.5,23.5h-3.6l-2.6-7.3h-8.8l-2.6,7.3h-2.1l7-19h-.1ZM552.2,160.6h7.7l-4-10.2-3.7,10.2h0Z"/>
      <path class="st3" d="M581.9,170c0,3.6-.6,7-6.7,7s-7.2-1-7.2-4.8h4c0,1.5.5,3.7,3.2,3.7s3.4-2.7,3.4-4.6v-4.1h0c-.6,1-1.6,2.5-4.3,2.5-4.3,0-6.1-3.7-6.1-7.7s1.4-8.9,6.1-8.9,3.7,1.5,4.3,2.4h0v-2h6.2v.7c-1.1,0-2.7,0-2.7,2.5v13.5h-.1ZM578.4,159.1c0-2.2-1.1-4.3-3.2-4.3-3.1,0-3.5,4-3.5,6.5s.4,6.3,3.2,6.3,3.5-3.1,3.5-5v-3.5h0Z"/>
      <path class="st3" d="M587.2,157.7c0-2.5-.5-3-2.7-3.1v-.7l6.2-1.1v4.6h0c.5-1.6,1.6-4.6,4.3-4.6s1.2,0,1.9,0v3.4c-.5,0-1.1-.4-1.7-.4-3.5,0-4.5,2.7-4.5,5.2v8.3h-3.5v-11.7h0Z"/>
      <path class="st3" d="M599.8,157.7c0-2.5-.5-3-2.7-3.1v-.7l6.2-1.1v16.7h-3.5v-11.7h0ZM599.4,147.9c0-1.2,1-2.1,2.2-2.1s2.2,1,2.2,2.1-1,2.2-2.2,2.2-2.1-1-2.1-2.2h-.1Z"/>
      <path class="st3" d="M619.6,169c-1.2.5-2,.9-5,.9-4.8,0-7.7-3.5-7.7-8.7s2-8.3,7-8.3,6.3,2,6.3,4.8h-4.1c0-1.5-.4-3.6-2.5-3.6s-2.9,2.6-2.9,6c0,5.2,2.4,8,5.5,8s2.5-.2,3.4-.5v1.5h0Z"/>
      <path class="st3" d="M632.9,165.6h0c-.6,1.5-2,4.3-5.3,4.3s-4.6-4.6-4.6-7.1v-5c0-2.5-.5-3-2.7-3.1v-.7l6.2-1.1v10.6c0,3.2,1.1,4.1,2.9,4.1s3.9-3,3.9-5.8v-3.9c0-2.5-.6-3-2.7-3.1v-.7l6.1-1.1v16.7h-3.5v-4h-.1Z"/>
      <path class="st3" d="M640.9,149.8c0-2.5-.6-3.1-2.6-3.2v-.7l6.1-.9v24.5h-3.5v-19.8h0Z"/>
      <path class="st3" d="M657.7,169.5c-.7,0-1.6.2-2.4.2-3.4,0-5.3-.5-5.3-4.5v-10.7h-2.7v-1.4h2.7v-2.7l3.5-3.1v5.8h4.6v1.4h-4.6v10.2c0,2.5,0,3.5,2.9,3.5s.9,0,1.2,0v1.4h.1Z"/>
      <path class="st3" d="M671.3,165.6h0c-.6,1.5-2,4.3-5.3,4.3s-4.7-4.6-4.7-7.1v-5c0-2.5-.5-3-2.6-3.1v-.7l6.2-1.1v10.6c0,3.2,1.1,4.1,2.9,4.1s3.9-3,3.9-5.8v-3.9c0-2.5-.6-3-2.7-3.1v-.7l6.2-1.1v16.7h-3.5v-4h-.2Z"/>
      <path class="st3" d="M679.6,157.7c0-2.5-.5-3-2.7-3.1v-.7l6.2-1.1v4.6h0c.5-1.6,1.6-4.6,4.3-4.6s1.2,0,1.9,0v3.4c-.5,0-1.1-.4-1.7-.4-3.5,0-4.5,2.7-4.5,5.2v8.3h-3.5v-11.7h0Z"/>
      <path class="st3" d="M702.9,168.9c-.6.2-2.5,1-4.8,1-5.3,0-8.5-3.2-8.5-9.1s2.6-8,7.3-8,6.5,4.3,6.5,6.7h-9.9c0,3.5,1.5,8.5,6.3,8.5s2.7-.4,3.2-.6v1.5h-.1ZM699.8,158.1c0-.9,0-4.1-3.1-4.1s-3.4,2.7-3.4,4.1h6.5Z"/>
      <path class="st3" d="M534.9,165.6l-.5.4c-.5.5-1,.9-1.4,1.1-.6.4-1.5.2-2.5-.4-.5-.4-1.1-.9-1.7-1.6l-.5-.5c-.2-.2-.4-.5-.5-.7h0v-.2c1.4-1.9,2.5-3.1,3-3.6l2-2c.4-.2.9-.6,1.7-.9h0v-.6h-2.9c-1.1,0-2,.2-2.7.2h-.7v.6c.4,0,.6.4.9.6s.4.6.4.9,0,.9-.5,1.5c-.5.9-1,1.6-1.7,2.2l-.2.2-.2-.2c0-.2-.4-.4-.6-.7l-2-2.4c-.5-.5-.9-1-1.1-1.2-.7-.7-1.2-1.2-1.5-1.6v-.5s.2-.2.5-.4c.4,0,1-.5,1.6-.9.6-.5,1.1-.9,1.2-1.2.2-.5.4-1.1.4-1.7,0-1-.4-1.9-1.4-2.6-.9-.7-2.1-1.2-3.6-1.2h-2.1c-1.2.4-2.2.9-2.9,1.7-.6.7-1,1.6-1,2.6s0,.9.2,1.4c.1.5.4.9.5,1.1.2.4.7,1,1.6,1.9l.2.2-.4.2c-.2,0-.5.2-1,.5-.7.4-1.6.7-2.5,1.4s-1.5,1.4-2,2.2-.6,1.7-.6,2.6c0,1.5.5,2.7,1.6,3.7s2.7,1.5,5.1,1.5,5.1-.9,7.3-2.7h.5c1.1,1,2.2,1.7,3.1,2.2.7.4,1.5.5,2.4.5s1.7,0,2.2-.5c.9-.5,1.5-1,1.9-1.6s.6-1.1.6-1.6,0-.2,0-.4h-.4M518.4,149.8c.5-.4,1.1-.6,1.7-.6s1.1,0,1.6.4c.5.2.7.6.9.9.2.7.4,1.4.4,1.7,0,.9,0,1.5-.4,1.9-.4.6-1,1.1-1.7,1.4h-.4c-1.1-1-1.9-1.7-2.4-2.4-.4-.5-.5-1.1-.5-1.6s.2-1.2.7-1.7M524,166.1c-1.1,1.1-2.4,1.6-3.9,1.6s-1.5-.2-2.2-.6c-.6-.4-1.2-.7-1.6-1.2-.5-.5-.9-1.1-1.2-2-.2-.5-.4-1-.4-1.6s.2-1.6.9-2.4c.5-.6,1.2-1.1,2.1-1.5h.4c1.1,1.1,2.1,2.4,3.2,3.7l2,2.5s.2.4.4.5c0,0,.2.4.4.6v.2h0Z"/>
      <path class="st1" d="M939.7,122.3c0,56-45.1,101.5-100.8,101.5s-100.8-45.5-100.8-101.5,45.1-101.5,100.8-101.5,100.8,45.5,100.8,101.5"/>
      <path class="st4" d="M939.7,122.3c0,56-45.1,101.5-100.8,101.5s-100.8-45.5-100.8-101.5,45.1-101.5,100.8-101.5,100.8,45.5,100.8,101.5"/>
      <path class="st5" d="M838.9,231.8c-59.9,0-108.6-49.1-108.6-109.5s48.7-109.5,108.6-109.5,108.6,49.1,108.6,109.5-48.7,109.5-108.6,109.5ZM838.9,19.2c-56.4,0-102.4,46.2-102.4,103.2s45.9,103.2,102.4,103.2,102.3-46.2,102.3-103.2-45.9-103.2-102.3-103.2Z"/>
      <path class="st2" d="M898.8,165.6c.2,0,.7.4.6.9,0,.2-.4.4-.7.4h-.4c-2.4-.6-5-.9-7.6-.9-13.7,0-31.4,10.4-45.6,20.8,2.9,2.4,5.8,5,8.8,7.8.4-.4.6-.5,1-.9,1.2-1,2.5-1.7,3.7-2.2.7-.2,1.5-.4,2.1,0,1.4.2,2.2,1.6,2.1,3.2,0,1.4-1,2.4-2.1,2.5-.9,0-1.6-.4-2.1-1.2-.5.5-1.1.9-1.5,1.4l-.6.6.9.7c.7.6,1.4,1.2,2,1.7,1.4,1.1,2.7,2.2,4.5,3,.5.2,1.2.5,1.9.5s.6,0,1-.2h.2c.2,0,.4-.2.6-.2h.2c.5,0,1,.2,1.2.7.2.5.4,1.2.2,1.9,0,.5-.4.9-.6,1.1-1.1,1.2-2.4,1.9-3.9,2.1h-1.7c-1.1,0-2.4-.5-3.6-1.1-2-.9-3.9-2.1-6.1-3.9l-1.7-1.5c-.6.6-1.2,1.1-1.9,1.7-.7.6-1.6,1.4-2.7,1.7h-1.9c-1-.2-1.7-1.1-2-2.2-.2-1.2.2-2.4,1.1-3s1.9-.5,2.7.2c0,0,.2.2.2.4.5-.5.9-1,1.4-1.5-3-2.7-6.8-5.5-10.2-8.2-3.5,2.7-7,5.5-9.9,8.2.5.5.9,1,1.4,1.5,0,0,.2-.2.2-.4.7-.7,1.9-.9,2.7-.2s1.4,1.7,1.1,3c0,1.1-1,2-2,2.2h-1.9c-1.1-.4-2.1-1.1-2.7-1.7s-1.2-1.1-1.9-1.7l-1.7,1.5c-2.2,1.7-4.1,3-6.1,3.9-1.4.6-2.5,1-3.6,1.1h-1.7c-1.5,0-2.7-.9-3.9-2.1-.2-.2-.5-.6-.6-1.1,0-.6,0-1.4.2-1.9s.7-.7,1.2-.7.2,0,.2,0c.2,0,.5,0,.6.2h.2c.4,0,.7.2,1,.2.6,0,1.4-.2,1.9-.5,1.6-.7,3.1-1.9,4.5-3,.6-.6,1.4-1.1,2-1.7l.9-.7-.6-.6c-.5-.5-1-.9-1.5-1.4-.5.7-1.2,1.2-2.1,1.2s-2-1.1-2.1-2.5c0-1.6.7-3,2.1-3.2h2.1c1.2.5,2.4,1.1,3.6,2.2.4.4.5.5,1,.9,3-2.9,6-5.3,8.8-7.7-14.2-10.3-31.9-20.8-45.6-20.8s-5.2.4-7.6.9h-.4c-.4,0-.6,0-.7-.4,0-.5.4-.7.6-.9.9-.5,5.6-2.4,13.2-2.4s26.5,3.1,46.7,18l.4.4h0c20.3-15,36.4-18.4,47-18.4s12.3,1.9,13,2.4M844.5,159.2c-1.2,2.1-2.9,7.7-2.9,7.7,1.7-1.5,7.2-2.6,9.4-3.1,16.5-3.6,17.5-18.6,18-21.6-.4.9-1.6,2.6-11.7,3.1-5.2.2-14,.9-18.6,9.6.7,1.6,1.4,3.4,1.9,5.3,5.7-13.7,19.6-11.8,22-12.3-2.4,1-12.4,1.5-18.1,11.1M838.3,175.1l2.5-1.2c-.6-26.7-14.9-28.2-21.9-28.6-10.1-.5-11.3-2.2-11.7-3.1.5,3,1.5,18,18,21.6,2.4.5,5.8,1,7.6,2.5-1.9-17.4-16.3-17-19.1-18.3,2.7.6,23.1-3.7,22.2,25.8l2.5,1.2h-.1ZM830,98.2c-.5-7.7,8.2-21.3,8.2-21.3,0,0,8.3,13.9,8.2,21.3,0,5.2-3.7,9.6-8.2,9.6s-8-4.3-8.2-9.6ZM841.8,104.4h-1.1c-4.3,0-7.8-4.1-7.8-9.1s0-1.6.4-2.7c-.9,2.2-1.5,4.3-1.5,5.6,0,4.1,2.9,7.3,6.3,7.3s2.6-.5,3.6-1.4v.2h.1ZM815.5,126.4c0,15.2,21.5,20.1,21.5,20.1v-4.7c0-15.8-21.5-20.1-21.5-20.1v4.7ZM839.2,141.8v4.7s21.5-4.8,21.5-20.1v-4.7s-21.5,4.2-21.5,20.1ZM820.9,109.3c0,12.4,16.3,16.3,16.3,16.3v-3.9c0-12.8-16.3-16.3-16.3-16.3v3.9ZM838.9,121.8v3.9s16.3-4,16.3-16.3v-3.9s-16.3,3.5-16.3,16.3M781,82.9c14.2-14.4,23.2-16.9,34.7-18.6-11.6,7.5-22.5,24.7-19.1,36.9,6.1-12.9,16.9-25.5,26.7-30.1-5.6,7.8-5.7,17.8-.4,26.1,1.2-10.9,8.8-21.4,15.2-28.3,6.3,7,13.9,17.5,15.2,28.3,5.3-8.5,5.2-18.3-.4-26.1,9.9,4.6,20.6,17.2,26.7,30.1,3.4-12.2-7.5-29.5-19.1-36.9,11.3,1.7,20.5,4.3,34.7,18.6-4.7-19.3-21.1-25.8-34.3-28.2,14.5-1.2,17.4.2,30.2,5.6-13.9-13.8-23.6-16.3-37.5-14.9,2.4-2.1,4.7-3.2,8.2-4.2-5.8-2.4-15-1.1-18.5,2.4,0,0-.7-6.3-4.8-8.8h0c-4.2,2.6-4.8,8.9-4.8,8.9-3.6-3.5-12.7-4.6-18.5-2.4,3.5.9,5.8,2.1,8.2,4.2-13.9-1.4-23.7,1.1-37.5,14.9,12.8-5.3,15.7-6.8,30.2-5.6-13.2,2.4-29.7,9.1-34.3,28.2"/>
    </g>
  </g>
</svg>