<svg width="170" height="48" viewBox="0 0 170 48" fill="none" xmlns="http://www.w3.org/2000/svg">
<g clip-path="url(#clip0_326_26113)">
<mask id="mask0_326_26113" style="mask-type:luminance" maskUnits="userSpaceOnUse" x="115" y="0" width="55" height="48">
<path d="M170.001 0H115.531V48H170.001V0Z" fill="white"/>
</mask>
<g mask="url(#mask0_326_26113)">
<mask id="mask1_326_26113" style="mask-type:luminance" maskUnits="userSpaceOnUse" x="116" y="0" width="54" height="48">
<path d="M143.96 23.4221C143.686 24.5307 143.541 25.6979 143.541 26.9014C143.541 28.1048 143.686 29.2692 143.959 30.3764C143.989 30.2161 144.017 30.0529 144.044 29.8912C144.202 28.9136 144.283 27.9124 144.283 26.9014C144.283 25.7091 144.171 24.5447 143.96 23.4221ZM145.465 19.703C145.259 20.053 145.069 20.4156 144.893 20.7879C145.502 22.7039 145.833 24.7608 145.833 26.9014C145.833 27.9863 145.743 29.0754 145.569 30.1533C145.412 31.1155 145.186 32.068 144.889 33.0051C145.041 33.3286 145.206 33.6438 145.38 33.9506C145.69 33.0399 145.942 32.1084 146.133 31.1616C146.426 29.7085 146.574 28.2136 146.574 26.7033C146.574 24.2462 146.183 21.8895 145.467 19.7016M147.211 17.3602L147.122 17.4564C146.925 17.6698 146.736 17.8915 146.553 18.1202C147.564 20.7628 148.123 23.6619 148.123 26.7019C148.123 28.3084 147.962 29.9121 147.645 31.4851C147.366 32.8726 146.965 34.2308 146.446 35.5417C146.639 35.7899 146.84 36.0297 147.048 36.2612C147.577 34.9128 147.996 33.5141 148.296 32.0819C148.672 30.2928 148.865 28.4548 148.865 26.6029C148.865 23.3314 148.277 20.2106 147.21 17.3588M142.766 19.537C142.6 19.9177 142.446 20.3068 142.307 20.7028C142.477 21.1072 142.631 21.5214 142.766 21.9439C142.903 21.5214 143.058 21.1072 143.227 20.7028C143.086 20.3068 142.932 19.9177 142.766 19.5356M144.27 16.7857C144.054 17.1064 143.848 17.4383 143.653 17.7758C143.832 18.1244 144.002 18.48 144.16 18.8412C144.354 18.5121 144.561 18.1913 144.777 17.8804C144.616 17.5094 144.447 17.1427 144.269 16.7843M145.996 14.6172C145.937 14.6786 145.879 14.7413 145.822 14.8055C145.644 14.9979 145.472 15.1973 145.305 15.3995C145.5 15.7621 145.686 16.1303 145.863 16.5054L145.993 16.3617C146.176 16.1623 146.365 15.9685 146.558 15.7802C146.379 15.387 146.192 14.9993 145.996 14.6186M142.766 11.6539C142.973 11.4085 143.184 11.1672 143.397 10.9316L143.544 10.774C143.293 10.4505 143.033 10.1353 142.766 9.82574C142.499 10.1353 142.24 10.4505 141.988 10.774L142.133 10.9302C142.349 11.1658 142.559 11.4071 142.765 11.6525M141.067 13.9702C141.296 13.6118 141.534 13.2618 141.78 12.9187C141.543 12.6273 141.298 12.3442 141.048 12.0681C140.801 12.4334 140.562 12.8058 140.333 13.1865C140.505 13.358 140.671 13.5337 140.836 13.7136C140.914 13.7987 140.991 13.8851 141.068 13.9716M139.669 16.5054C139.846 16.1303 140.033 15.7621 140.229 15.3995C140.061 15.1973 139.888 14.9993 139.712 14.8055C139.653 14.7413 139.595 14.68 139.537 14.6172C139.341 14.9979 139.153 15.3856 138.976 15.7788C139.169 15.9671 139.357 16.1609 139.54 16.3604L139.67 16.504L139.669 16.5054ZM141.263 16.7843C141.085 17.1441 140.916 17.508 140.755 17.8804C140.973 18.1913 141.178 18.5121 141.372 18.8412C141.532 18.48 141.701 18.1244 141.879 17.7758C141.684 17.4369 141.479 17.1064 141.262 16.7857M142.766 14.2351C142.536 14.5698 142.314 14.9129 142.103 15.2629C142.333 15.578 142.555 15.9016 142.766 16.2335C142.978 15.9016 143.2 15.578 143.431 15.2629C143.219 14.9129 142.997 14.5698 142.766 14.2351ZM144.484 12.0695C144.232 12.3456 143.988 12.6287 143.751 12.9201C143.998 13.2632 144.235 13.6146 144.464 13.973C144.541 13.8865 144.618 13.8001 144.696 13.715C144.859 13.5351 145.027 13.3594 145.197 13.1879C144.968 12.8072 144.73 12.4348 144.484 12.0695ZM116.651 22.7444C117.5 19.5579 119.262 16.868 121.572 14.9756C123.893 13.0735 126.767 11.9719 129.824 11.9719C132.88 11.9719 135.513 12.9885 137.751 14.7176C137.947 14.3049 138.152 13.8977 138.367 13.4961C135.717 11.1979 132.367 9.82434 128.726 9.82434C126.554 9.82434 124.432 10.3222 122.485 11.2565C120.531 12.195 118.757 13.5714 117.285 15.3228L116.117 14.2812C117.738 12.3512 119.689 10.8381 121.833 9.809C123.984 8.77568 126.328 8.22625 128.726 8.22625C132.657 8.22625 136.277 9.67374 139.166 12.1071C139.412 11.7083 139.667 11.3192 139.933 10.9358C136.623 7.84137 132.325 5.97135 127.627 5.97135C126.411 5.97135 125.208 6.09685 124.035 6.34507C122.857 6.59469 121.696 6.96702 120.573 7.46067L119.967 5.99366C121.182 5.46096 122.442 5.05656 123.727 4.78602C125.017 4.5127 126.323 4.37465 127.627 4.37465C132.675 4.37465 137.299 6.3646 140.872 9.66398C141.141 9.32511 141.414 8.99322 141.698 8.6697C137.716 4.6396 132.385 2.17413 126.528 2.17413V0.583008C132.798 0.583008 138.504 3.21721 142.766 7.52482C147.03 3.21721 152.736 0.583008 159.006 0.583008V2.1811C153.149 2.1811 147.819 4.64518 143.836 8.67667C144.118 9.0002 144.393 9.33209 144.661 9.67095C148.235 6.37157 152.857 4.38162 157.907 4.38162C159.211 4.38162 160.518 4.51967 161.808 4.793C163.093 5.06353 164.353 5.46933 165.568 6.00203L164.962 7.46904C163.837 6.97539 162.678 6.60305 161.5 6.35344C160.327 6.10661 159.123 5.97971 157.907 5.97971C153.209 5.97971 148.911 7.84973 145.601 10.9427C145.866 11.3248 146.122 11.7153 146.368 12.1141C149.257 9.68071 152.878 8.23322 156.808 8.23322C159.207 8.23322 161.551 8.78265 163.701 9.81598C165.844 10.8451 167.795 12.3595 169.416 14.2881L168.249 15.3298C166.777 13.5783 165.001 12.202 163.047 11.2635C161.1 10.3278 158.979 9.82992 156.806 9.82992C153.164 9.82992 149.814 11.2035 147.165 13.5016C147.38 13.9019 147.585 14.309 147.779 14.7232C150.019 12.994 152.755 11.9774 155.707 11.9774C158.659 11.9774 161.637 13.0791 163.959 14.9812C166.269 16.8735 168.031 19.5635 168.88 22.7499L167.392 23.1683C166.633 20.3221 165.059 17.9208 162.997 16.2293C160.945 14.5489 158.408 13.5755 155.707 13.5755C153.006 13.5755 150.459 14.5587 148.43 16.2181C149.704 19.4004 150.41 22.9145 150.41 26.6071C150.41 28.5692 150.207 30.5187 149.806 32.4236C149.445 34.1374 148.922 35.8164 148.243 37.4326C150.303 39.1855 152.893 40.2314 155.707 40.2314C155.95 40.2314 156.192 40.2244 156.432 40.2091C156.048 40.771 155.633 41.3093 155.188 41.8197C151.6 41.6747 148.365 40.0278 145.993 37.4396C143.52 34.7412 141.991 31.0151 141.991 26.9042C141.991 25.6993 141.846 24.5335 141.572 23.4249C141.361 24.5474 141.25 25.7119 141.25 26.9042C141.25 31.089 142.631 34.9657 144.954 37.9639C147.092 40.725 150.032 42.7415 153.423 43.5684C152.918 43.9993 152.389 44.4009 151.839 44.7691C148.622 43.7065 145.834 41.6538 143.744 38.9568C141.208 35.6839 139.701 31.46 139.701 26.9042C139.701 24.7636 140.032 22.7067 140.639 20.7921C140.463 20.4197 140.272 20.0572 140.067 19.7058C139.349 21.8923 138.959 24.249 138.959 26.7061C138.959 30.8966 140.11 34.8793 142.146 38.2135C144.115 41.4404 146.911 44.0634 150.292 45.6866C149.695 45.9976 149.08 46.2723 148.444 46.5094C145.324 44.7426 142.727 42.1586 140.838 39.0628C138.648 35.4747 137.409 31.1978 137.409 26.7061C137.409 23.6661 137.969 20.767 138.98 18.1244C138.797 17.8957 138.609 17.6754 138.412 17.4606L138.323 17.3644C137.256 20.2161 136.668 23.337 136.668 26.6085C136.668 30.739 137.619 34.7245 139.359 38.2386C141.093 41.7416 143.612 44.783 146.754 47.0351C146.074 47.2066 145.378 47.3349 144.667 47.4186C144.003 46.8761 143.368 46.2988 142.766 45.6894C142.376 46.0841 141.974 46.462 141.562 46.8259C141.333 47.0281 141.102 47.2248 140.864 47.4186C140.153 47.3363 139.456 47.208 138.776 47.0351C139.388 46.5959 139.983 46.1217 140.557 45.6141C140.946 45.2697 141.326 44.9099 141.695 44.5376C141.444 44.2489 141.199 43.9547 140.96 43.6549C140.254 44.3145 139.511 44.9183 138.733 45.4649C138.198 45.84 137.649 46.1887 137.085 46.508C136.45 46.2723 135.834 45.9976 135.239 45.6866C136.152 45.2488 137.028 44.7342 137.862 44.1485C138.616 43.6186 139.335 43.0301 140.014 42.3887C139.806 42.0902 139.603 41.7876 139.406 41.4808C138.385 42.3719 137.278 43.1305 136.105 43.7427C135.326 44.1499 134.519 44.4916 133.689 44.7677C133.139 44.3995 132.61 43.9979 132.105 43.567C133.251 43.2867 134.358 42.8684 135.408 42.3203C136.539 41.7291 137.608 40.9872 138.585 40.1073C138.376 39.7307 138.174 39.3486 137.983 38.961L137.961 38.915C136.919 39.7503 135.78 40.4182 134.577 40.9007C133.225 41.4446 131.795 41.7569 130.342 41.8169C129.896 41.3065 129.481 40.7696 129.097 40.2077C129.336 40.223 129.576 40.23 129.821 40.23C131.266 40.23 132.685 39.9497 134.014 39.4142C135.183 38.9442 136.288 38.2763 137.285 37.4284C135.877 34.0774 135.118 30.3946 135.118 26.6043C135.118 22.8141 135.824 19.3976 137.098 16.2153C135.069 14.5559 132.549 13.5728 129.821 13.5728C127.092 13.5728 124.583 14.5461 122.531 16.2265C120.469 17.9166 118.895 20.3193 118.136 23.1655L116.648 22.7472L116.651 22.7444Z" fill="white"/>
</mask>
<g mask="url(#mask1_326_26113)">
<path d="M169.417 0.583008H116.115V47.4172H169.417V0.583008Z" fill="url(#paint0_linear_326_26113)"/>
</g>
</g>
<path d="M29.0314 21.1362H27.7188V22.6981H29.0314V21.1362Z" fill="#00A4A3"/>
<path d="M31.4553 21.1362H30.1426V22.6981H31.4553V21.1362Z" fill="#00A4A3"/>
<path d="M96.025 21.1362H94.7109V22.6981H96.025V21.1362Z" fill="#00A4A3"/>
<path d="M84.5543 21.1362H83.2402V22.6981H84.5543V21.1362Z" fill="#00A4A3"/>
<path d="M75.6363 33.6118H74.3223V35.1737H75.6363V33.6118Z" fill="#00A4A3"/>
<path d="M73.2125 33.6118H71.8984V35.1737H73.2125V33.6118Z" fill="#00A4A3"/>
<path d="M106.849 28.5594C106.849 29.4045 106.757 29.9916 106.571 30.3235C106.312 30.838 105.794 31.0946 104.999 31.0946H103.815L101.724 31.0765C101.964 30.58 102.076 29.9191 102.076 29.1284V20.4741H100.782V28.5594C100.782 29.4045 100.689 29.9916 100.504 30.3416C100.245 30.838 99.7259 31.0946 98.9313 31.0946H97.7471L95.6566 31.0765C95.8982 30.58 96.0085 29.9191 96.0085 29.1284V24.0203H94.714V28.5594C94.714 29.4045 94.6218 29.9916 94.4361 30.3416C94.1763 30.838 93.6582 31.0946 92.8622 31.0946H91.678L90.0497 31.0765V30.5061C90.0497 26.6838 87.6269 24.2588 83.9444 24.2588C81.9278 24.2588 80.4113 24.9016 79.3555 26.2055C79.9295 26.7759 80.2982 27.1426 80.4839 27.3448C81.224 26.133 82.3887 25.5264 83.9625 25.5264C86.8672 25.5264 88.5136 27.3086 88.5136 30.4141C88.5136 30.6163 88.4955 30.8366 88.4773 31.0765H75.2681C75.5083 30.58 75.62 29.9191 75.62 29.1284V24.0203H74.3254V28.5594C74.3254 29.4045 74.2333 29.9916 74.0475 30.3416C73.7878 30.838 73.2697 31.0946 72.4751 31.0946H71.2909L68.6641 31.0765C68.8303 30.4518 68.9043 29.7908 68.9043 29.0921V20.4741H67.6098V28.8355C67.6098 32.0875 66.1114 34.1639 63.6885 34.1639C61.2656 34.1639 59.7477 31.9955 59.7477 28.8355V27.3281H58.4531V29.0921C58.4531 32.7304 60.654 35.4134 63.6885 35.4134C65.6128 35.4134 67.3151 34.2741 68.2215 32.3636H105.428C107.24 32.3636 108.147 31.2801 108.147 29.1298V20.4755H106.852V28.5608L106.849 28.5594Z" fill="#00A4A3"/>
<path d="M3.38929 31.04C3.38929 33.2084 2.51928 34.1455 0.798828 34.1455V35.3769C3.51776 35.2305 4.68382 33.7969 4.68382 30.8015V24.0215H3.38929V31.04Z" fill="#00A4A3"/>
<path d="M21.5944 32.8044C20.7984 32.8044 20.1881 32.5102 19.7622 31.9036C19.4103 31.389 19.2441 30.7085 19.2441 29.8829C19.2441 28.9821 19.4103 28.2834 19.7622 27.7508C20.1881 27.1079 20.8361 26.7774 21.6684 26.7774C22.5007 26.7774 23.0369 27.0716 23.4251 27.6782C23.7589 28.1747 23.9251 28.8357 23.9251 29.6626C23.9251 31.7571 23.1472 32.8044 21.5944 32.8044ZM12.3441 31.0766L10.1977 31.0948C9.47576 31.0948 8.90321 30.7461 8.47728 30.0475C8.12537 29.4771 7.95919 28.8161 7.95919 28.0812C7.95919 27.3463 8.16307 26.7397 8.55129 26.1694C8.99537 25.5265 9.56932 25.196 10.2717 25.196C10.9742 25.196 11.4741 25.4164 11.8442 25.8389C12.1765 26.2056 12.3441 26.6658 12.3441 27.1985V31.0752V31.0766ZM36.2476 28.5596C36.2476 29.4046 36.1554 29.9917 35.9697 30.3236C35.7113 30.8382 35.1918 31.0948 34.3972 31.0948H33.213L31.1225 31.0766C31.3627 30.5802 31.4744 29.9192 31.4744 29.1285V24.0205H30.1799V28.5596C30.1799 29.4046 30.0877 29.9917 29.902 30.3417C29.6436 30.8382 29.1255 31.0948 28.3296 31.0948H27.1453L25.2769 31.0766C25.3872 30.6722 25.443 30.2497 25.443 29.7909C25.443 28.5777 25.1107 27.5862 24.4627 26.8332C23.7784 26.0425 22.8163 25.6395 21.6139 25.6395C20.4115 25.6395 19.4494 26.0244 18.7456 26.815C18.0613 27.6057 17.7094 28.5972 17.7094 29.8104C17.7094 30.2692 17.7652 30.6917 17.8574 31.078L16.0811 31.0962H13.6764V27.6782C13.6764 25.2532 12.4 24.0037 10.3458 24.0037C9.29143 24.0037 8.40327 24.4081 7.68129 25.2169C6.97886 26.0258 6.62695 27.0172 6.62695 28.2123C6.62695 29.4074 6.95931 30.3989 7.62543 31.1896C8.29155 31.9803 9.142 32.3651 10.1782 32.3651H12.1947C11.8805 33.5407 11.1208 34.1473 9.93799 34.1473H9.77181V35.3787C11.8986 35.2504 13.1583 34.2575 13.5269 32.3651H18.4118C19.0975 33.4305 20.17 33.9632 21.5944 33.9632C23.0188 33.9632 23.9991 33.4305 24.7029 32.3651H34.8232C36.6358 32.3651 37.5421 31.2816 37.5421 29.1313V20.4771H36.2476V28.5623V28.5596Z" fill="#00A4A3"/>
<path d="M41.316 20.4741H40.0215V32.3622H41.316V20.4741Z" fill="#00A4A3"/>
<path d="M50.3071 30.9299C48.9567 30.9299 48.0322 29.6623 48.0322 27.9903C48.0322 26.3183 48.8645 25.1065 50.2149 25.1065C51.5653 25.1065 52.5093 26.4104 52.5093 28.0642C52.5093 29.7181 51.6589 30.9299 50.3085 30.9299M50.2903 23.9658C48.1817 23.9658 46.7559 25.656 46.7559 28.0085C46.7559 30.361 48.2543 32.0874 50.2903 32.0874C51.3447 32.0874 52.0666 31.7387 52.473 31.0401C52.4353 33.1165 51.5667 34.1457 49.8644 34.1457V35.377C52.5833 35.2292 53.7676 33.797 53.7676 30.8016V28.0642C53.7676 25.6755 52.3054 23.9672 50.2889 23.9672" fill="#00A4A3"/>
<path d="M64.5566 1.34717H63.2285V2.92713H64.5566V1.34717Z" fill="#00A4A3"/>
<path d="M19.9173 1.34717H18.5879V2.92713H19.9173V1.34717Z" fill="#00A4A3"/>
<path d="M34.9098 11.4208H25.6442C26.524 8.29714 29.3309 5.43563 31.7077 5.43563C33.7298 5.43563 34.9657 7.31262 34.9657 10.2494C34.9657 10.6218 34.9475 11.0122 34.9098 11.4208ZM31.8208 4.24473C29.3867 4.24473 26.8982 6.27093 25.626 9.33883L25.9249 0.694336H24.5591V11.4208H22.2815L19.543 11.4027C19.786 10.9007 19.8991 10.2313 19.8991 9.43226V4.26425H18.5892V8.85633C18.5892 9.71116 18.4956 10.3066 18.3085 10.6594C18.0474 11.1614 17.5223 11.4222 16.7179 11.4222H15.5198C14.1163 11.4222 13.4614 10.8086 12.7687 9.02506C12.1892 7.53853 10.6167 6.36715 9.47582 6.36715C8.80132 6.36715 8.46477 6.38528 8.46477 6.4048H8.48292V7.57618C10.0176 7.57618 10.917 8.43101 10.917 10.1044C10.917 12.3342 8.72591 14.4162 6.21784 14.4162C3.24196 14.4162 1.42654 12.2045 1.42654 8.85773V7.24011H0.0957031V9.09897C0.0957031 12.8167 2.71549 15.7173 6.16059 15.7173C9.34315 15.7173 12.1124 13.2448 12.1124 10.1407C12.5341 11.7039 13.8175 12.6563 15.4848 12.6982V12.7065H36.2015C36.2769 11.9256 36.3146 11.2005 36.3146 10.5506C36.3146 6.36855 34.8162 4.24891 31.8222 4.24891" fill="#00A4A3"/>
<path d="M93.6257 13.1501C92.8214 13.1501 92.2041 12.853 91.7726 12.2394C91.4165 11.7193 91.2489 11.0304 91.2489 10.1937C91.2489 9.28311 91.4165 8.5761 91.7726 8.03782C92.2041 7.38659 92.8577 7.05331 93.7011 7.05331C94.5446 7.05331 95.0851 7.35034 95.4789 7.96391C95.8154 8.46593 95.9844 9.13529 95.9844 9.97199C95.9844 12.0916 95.1982 13.1514 93.6257 13.1514M102.31 8.85779C102.31 9.71261 102.217 10.3081 102.03 10.6427C101.769 11.1629 101.243 11.4237 100.439 11.4237H99.241L97.3501 11.4055C97.4618 10.9969 97.5177 10.5688 97.5177 10.1045C97.5177 8.8787 97.1812 7.87467 96.5262 7.11188C95.8336 6.31283 94.8602 5.90424 93.6439 5.90424C92.4276 5.90424 91.4542 6.2947 90.742 7.09375C90.0494 7.89279 89.6933 8.89683 89.6933 10.124C89.6933 10.5884 89.7505 11.0151 89.8427 11.4069H84.9941V4.26431H83.6842V11.3651C83.6842 13.5586 82.8045 14.5069 81.0645 14.5069V15.7522C83.2346 15.6211 84.5082 14.6185 84.8643 12.7038H90.4041C91.0967 13.7818 92.1818 14.3214 93.6229 14.3214C95.0641 14.3214 96.0556 13.7818 96.7678 12.7038H100.868C102.701 12.7038 103.619 11.6063 103.619 9.43232V0.67627H102.309V8.85639L102.31 8.85779Z" fill="#00A4A3"/>
<path d="M8.19914 17.1274H6.87109V18.7074H8.19914V17.1274Z" fill="#00A4A3"/>
<path d="M73.4851 4.50696H71.8191L74.0465 0.695801H72.4923C71.2578 2.88935 70.3026 4.58087 69.6281 5.7899H73.4838C75.0743 5.7899 76.2725 6.29192 77.0769 7.29596C77.7695 8.15079 78.1061 9.30404 78.1061 10.7348C78.1061 10.9593 78.0879 11.181 78.0684 11.4041H64.5351V4.26432H63.2253V11.3651C63.2253 13.5586 62.3455 14.5069 60.6055 14.5069V15.7522C62.777 15.6225 64.0492 14.6185 64.5547 12.7038H79.659V10.8268C79.659 8.9317 79.1171 7.40612 78.0125 6.25427C76.8884 5.08289 75.3732 4.50696 73.4824 4.50696" fill="#00A4A3"/>
<path d="M5.74797 17.1274H4.41992V18.7074H5.74797V17.1274Z" fill="#00A4A3"/>
<path d="M107.439 0.67627H106.129V12.7038H107.439V0.67627Z" fill="#00A4A3"/>
<path d="M55.6673 0.67627H54.3574V12.7038H55.6673V0.67627Z" fill="#00A4A3"/>
<path d="M44.0615 11.4027L41.89 11.4209C41.1597 11.4209 40.5801 11.0681 40.1486 10.3611C39.7925 9.78513 39.6249 9.11577 39.6249 8.3725C39.6249 7.62923 39.8302 7.01566 40.224 6.43973C40.6737 5.7885 41.2532 5.45382 41.9654 5.45382C42.6776 5.45382 43.1818 5.67694 43.556 6.10505C43.8926 6.47599 44.0615 6.94175 44.0615 7.48002V11.4027ZM50.537 8.85639C50.537 9.71122 50.4434 10.3067 50.2563 10.6413C49.9952 11.1615 49.4701 11.4223 48.6657 11.4223H45.4091V7.96391C45.4091 5.51099 44.1174 4.24618 42.0394 4.24618C40.9725 4.24618 40.0746 4.65477 39.3442 5.47334C38.6334 6.29052 38.2773 7.29456 38.2773 8.50358C38.2773 9.71261 38.6153 10.7167 39.2884 11.5143C39.9629 12.3134 40.8231 12.7038 41.8719 12.7038H43.9121C43.5937 13.8933 42.8257 14.5069 41.6289 14.5069H41.4613V15.7522C43.6133 15.6211 44.8869 14.6185 45.2611 12.7038H49.0986C50.9322 12.7038 51.8497 11.6063 51.8497 9.43232V0.67627H50.5398V8.85639H50.537Z" fill="#00A4A3"/>
<path d="M1.6075 40.8423L3.5486 44.5698V40.8423H4.19657V46.0605H3.5486L1.6075 42.333V46.0605H0.960938V40.8423H1.6075Z" fill="#00A4A3"/>
<path d="M5.79215 44.1974H7.06015L6.42615 41.5869L5.79215 44.1974ZM8.20665 46.0604H7.56009L7.25984 44.942H5.59664L5.2964 46.0604H4.64844L6.00721 40.8408H6.84928L8.20805 46.0604H8.20665Z" fill="#00A4A3"/>
<path d="M11.5673 40.8423V41.5869H10.4348V46.0605H9.78823V41.5869H8.6543V40.8423H11.5673Z" fill="#00A4A3"/>
<path d="M12.9884 40.8423H12.3418V46.0619H12.9884V40.8423Z" fill="#00A4A3"/>
<path d="M14.4077 44.7566C14.4077 45.129 14.5697 45.3158 14.8923 45.3158H15.7023C16.0262 45.3158 16.1882 45.129 16.1882 44.7566V42.1475C16.1882 41.7738 16.0262 41.5883 15.7023 41.5883H14.8923C14.5683 41.5883 14.4077 41.7738 14.4077 42.1475V44.7566ZM16.8348 44.7566C16.8348 45.6268 16.4578 46.0605 15.7023 46.0605H14.8923C14.1368 46.0605 13.7598 45.6254 13.7598 44.7566V42.1475C13.7598 41.2774 14.1368 40.8423 14.8923 40.8423H15.7023C16.4578 40.8423 16.8348 41.2774 16.8348 42.1475V44.7566Z" fill="#00A4A3"/>
<path d="M18.2559 40.8423L20.1984 44.5698V40.8423H20.845V46.0605H20.1984L18.2559 42.333V46.0605H17.6094V40.8423H18.2559Z" fill="#00A4A3"/>
<path d="M22.44 44.1974H23.708L23.074 41.5869L22.44 44.1974ZM24.8545 46.0604H24.208L23.9063 44.942H22.2431L21.9415 46.0604H21.2949L22.6537 40.8408H23.4944L24.8531 46.0604H24.8545Z" fill="#00A4A3"/>
<path d="M25.9493 45.3158H27.8918V46.0605H25.3027V40.8423H25.9493V45.3158Z" fill="#00A4A3"/>
<path d="M30.7339 44.7566C30.7339 45.129 30.8959 45.3158 31.2185 45.3158H32.675V46.0605H31.2185C30.463 46.0605 30.0859 45.6254 30.0859 44.7566V42.1475C30.0859 41.2774 30.463 40.8423 31.2185 40.8423H32.675V41.5883H31.2185C30.8945 41.5883 30.7339 41.7738 30.7339 42.1475V44.7566Z" fill="#00A4A3"/>
<path d="M36.0349 43.0791V43.8237H34.0938V45.3158H36.0349V46.0605H33.4473V40.8423H36.0349V41.5869H34.0938V43.0791H36.0349Z" fill="#00A4A3"/>
<path d="M37.4566 40.8423L39.3977 44.5698V40.8423H40.0442V46.0605H39.3977L37.4566 42.333V46.0605H36.8086V40.8423H37.4566Z" fill="#00A4A3"/>
<path d="M43.73 40.8423V41.5869H42.5975V46.0605H41.9509V41.5869H40.8184V40.8423H43.73Z" fill="#00A4A3"/>
<path d="M45.1505 41.5869V43.079H46.283C46.607 43.079 46.769 42.8921 46.769 42.5198V42.1461C46.769 41.7737 46.607 41.5869 46.283 41.5869H45.1505ZM46.0177 43.8237H45.1505V46.0604H44.5039V40.8408H46.283C47.0385 40.8408 47.4156 41.2759 47.4156 42.1447V42.5184C47.4156 43.3007 47.1628 43.7316 46.6587 43.8083L47.4156 46.0604H46.769L46.0177 43.8237Z" fill="#00A4A3"/>
<path d="M50.7785 43.0791V43.8237H48.836V45.3158H50.7785V46.0605H48.1895V40.8423H50.7785V41.5869H48.836V43.0791H50.7785Z" fill="#00A4A3"/>
<path d="M55.5603 43.0791V43.8237H53.6192V46.0605H52.9727V40.8423H55.5603V41.5869H53.6192V43.0791H55.5603Z" fill="#00A4A3"/>
<path d="M56.98 44.7566C56.98 45.129 57.142 45.3158 57.4646 45.3158H58.2745C58.5985 45.3158 58.7591 45.129 58.7591 44.7566V42.1475C58.7591 41.7738 58.5971 41.5883 58.2745 41.5883H57.4646C57.1406 41.5883 56.98 41.7738 56.98 42.1475V44.7566ZM59.4071 44.7566C59.4071 45.6268 59.03 46.0605 58.2745 46.0605H57.4646C56.7091 46.0605 56.332 45.6254 56.332 44.7566V42.1475C56.332 41.2774 56.7091 40.8423 57.4646 40.8423H58.2745C59.03 40.8423 59.4071 41.2774 59.4071 42.1475V44.7566Z" fill="#00A4A3"/>
<path d="M60.8282 41.5869V43.079H61.9607C62.2847 43.079 62.4467 42.8921 62.4467 42.5198V42.1461C62.4467 41.7737 62.2847 41.5869 61.9607 41.5869H60.8282ZM61.6954 43.8237H60.8282V46.0604H60.1816V40.8408H61.9607C62.7162 40.8408 63.0933 41.2759 63.0933 42.1447V42.5184C63.0933 43.3007 62.8405 43.7316 62.3364 43.8083L63.0933 46.0604H62.4467L61.6954 43.8237Z" fill="#00A4A3"/>
<path d="M65.9337 41.5869V43.079H67.0662C67.3902 43.079 67.5522 42.8921 67.5522 42.5198V42.1461C67.5522 41.7737 67.3902 41.5869 67.0662 41.5869H65.9337ZM65.9337 43.8237V46.0604H65.2871V40.8408H67.0662C67.8217 40.8408 68.1988 41.2759 68.1988 42.1447V42.5184C68.1988 43.3872 67.8217 43.8223 67.0662 43.8223H65.9337V43.8237Z" fill="#00A4A3"/>
<path d="M69.7935 44.1974H71.0615L70.4275 41.5869L69.7935 44.1974ZM72.208 46.0604H71.5615L71.2598 44.942H69.5966L69.2964 46.0604H68.6484L70.0072 40.8408H70.8493L72.208 46.0604Z" fill="#00A4A3"/>
<path d="M73.3048 45.3158H75.2459V46.0605H72.6582V40.8423H73.3048V45.3158Z" fill="#00A4A3"/>
<path d="M76.0195 40.8423H76.8937L78.1226 44.7566L79.3529 40.8423H80.2257V46.0605H79.5791V42.1461L78.381 46.0605H77.8643L76.6661 42.1461V46.0605H76.0195V40.8423Z" fill="#00A4A3"/>
<path d="M80.998 46.0605V45.3158H82.7785C83.1025 45.3158 83.2631 45.129 83.2631 44.7566V44.3829C83.2631 44.0092 83.1011 43.8237 82.7785 43.8237H82.1306C81.3751 43.8237 80.998 43.3886 80.998 42.5199V42.1461C80.998 41.276 81.3751 40.8423 82.1306 40.8423H83.9111V41.5869H82.1306C81.8066 41.5869 81.646 41.7738 81.646 42.1461V42.5199C81.646 42.8922 81.808 43.0791 82.1306 43.0791H82.7785C83.534 43.0791 83.9111 43.5141 83.9111 44.3829V44.7566C83.9111 45.6254 83.534 46.0605 82.7785 46.0605H80.998Z" fill="#00A4A3"/>
<path d="M86.752 44.7566C86.752 45.1289 86.914 45.3158 87.238 45.3158H88.0466V43.8237H87.238C86.914 43.8237 86.752 44.0091 86.752 44.3828V44.7566ZM87.238 46.0604C86.4825 46.0604 86.1055 45.6253 86.1055 44.7566V44.3828C86.1055 43.8362 86.2884 43.5252 86.6557 43.4499C86.2884 43.376 86.1055 43.065 86.1055 42.5184V42.1447C86.1055 41.2745 86.4825 40.8408 87.238 40.8408H88.6945V41.5855H87.238C86.914 41.5855 86.752 41.7723 86.752 42.1447V42.5184C86.752 42.8907 86.914 43.0776 87.238 43.0776H88.0466V42.5184H88.6945V43.0776H89.0185V43.8223H88.6945V46.059H87.238V46.0604Z" fill="#00A4A3"/>
<path d="M93.4741 42.1461C93.4741 41.7737 93.3121 41.5869 92.9895 41.5869H91.8569V45.3158H92.9895C93.3135 45.3158 93.4741 45.1289 93.4741 44.7566V42.1461ZM92.9895 40.8422C93.745 40.8422 94.122 41.2773 94.122 42.1461V44.7566C94.122 45.6267 93.745 46.0604 92.9895 46.0604H91.209V40.8408H92.9895V40.8422Z" fill="#00A4A3"/>
<path d="M95.7174 44.1974H96.9868L96.3528 41.5869L95.7174 44.1974ZM98.1319 46.0604H97.4839L97.1837 44.942H95.5205L95.2188 46.0604H94.5723L95.931 40.8408H96.7717L98.1305 46.0604H98.1319Z" fill="#00A4A3"/>
<path d="M101.494 40.8423V41.5869H100.361V46.0605H99.7146V41.5869H98.582V40.8423H101.494Z" fill="#00A4A3"/>
<path d="M104.855 43.0791V43.8237H102.914V45.3158H104.855V46.0605H102.268V40.8423H104.855V41.5869H102.914V43.0791H104.855Z" fill="#00A4A3"/>
<path d="M105.629 46.0605V45.3158H107.409C107.733 45.3158 107.894 45.129 107.894 44.7566V44.3829C107.894 44.0092 107.732 43.8237 107.409 43.8237H106.763C106.007 43.8237 105.63 43.3886 105.63 42.5199V42.1461C105.63 41.276 106.009 40.8423 106.763 40.8423H108.543V41.5869H106.763C106.439 41.5869 106.278 41.7738 106.278 42.1461V42.5199C106.278 42.8922 106.439 43.0791 106.763 43.0791H107.409C108.165 43.0791 108.542 43.5141 108.542 44.3829V44.7566C108.542 45.6254 108.165 46.0605 107.409 46.0605H105.629Z" fill="#00A4A3"/>
</g>
<defs>
<linearGradient id="paint0_linear_326_26113" x1="95.7451" y1="24.0895" x2="182.207" y2="24.0895" gradientUnits="userSpaceOnUse">
<stop stop-color="#009CDE"/>
<stop offset="1" stop-color="#2EAB59"/>
</linearGradient>
<clipPath id="clip0_326_26113">
<rect width="169.905" height="48" fill="white" transform="translate(0.0957031)"/>
</clipPath>
</defs>
</svg>
