<?xml version="1.0" encoding="UTF-8"?>
<svg id="Layer_1" xmlns="http://www.w3.org/2000/svg" version="1.1" viewBox="0 0 1000 394.9">
  <!-- Generator: Adobe Illustrator 30.2.1, SVG Export Plug-In . SVG Version: 2.1.1 Build 1)  -->
  <defs>
    <style>
      .st0 {
        fill: #4b4e53;
      }
    </style>
  </defs>
  <g id="Layer_1-2">
    <path class="st0" d="M817.8,7.7l-4.2,2.4h0l-141.9,81.8c-17.9,10.5-28.9,29.5-28.9,50v10.6h0v100c0,17.9,8.4,34.8,22.3,45.8,2.1,1.5,4.2,2.9,6.6,4.5l4.2,2.4h0l141.9,81.8c17.9,10.5,39.8,10.5,57.7,0l81.6-47.1,14.4-8.4c16.3-9.5,27.1-26.4,28.5-45.1v-9.5h0V113.2c0-20.5-11-39.8-28.9-50l-95.8-55.3c-17.9-10.5-39.8-10.5-57.7,0M988.2,113v164c0,22.9-18.7,41.3-41.3,41.3s-9.2-1-13.4-2.1h-1.1c-11-4.5-22.1-8.9-32.7-13.7,3.9-34.8,6-70,6-105,0-50.3-4.2-100.6-11.9-149.6h0v-1.1c-1.5-6-3.5-11.3-6.3-16.3-.6-1-1-1.5-1.5-2.4l80,46.1c14,8.1,22.9,23.2,22.9,39.5M714.6,197.2c27.1-19.7,55-38.1,83.8-54.7s58.9-31.8,89.5-45.1c3.5,33.4,5.3,66.6,5.3,100.3s-1.8,66.9-5.3,100.3c-30.6-13.4-60.5-28.5-89.5-45.1-28.9-16.6-57.1-35.2-83.8-54.7M819.9,20.4c20-11.3,45.1-4.5,56.6,15.2,2.4,3.9,3.9,8.4,4.8,12.7v1.1c2.1,11.6,3.9,23.2,5,35.2-32.1,14-63.7,29.8-94,47.6-43.4,25-85.1,53.9-123.8,85.5h0l-1,1c-4.5,3.9-8.4,8.4-11.3,13.7-.6,1-1,1.5-1.1,2.4v-92.2c0-16.3,8.7-31.6,22.9-39.5l141.9-82.1h0v-.5ZM682,294.4c-9.5-5.6-16.3-14.5-19.3-25.3-2.9-10.6-1.5-22.1,4.2-31.6,2.4-3.9,5-7.4,8.7-10.5l1-1c9.2-7.4,18.4-14.5,27.9-21.8,28.2,20.8,57.7,40.1,88,57.7,26,14.8,52.7,28.5,79.7,41.1,18.4,8.4,37.2,16.1,56,23.5h1.1c5.6,2.4,11.3,3.2,17.3,3.2h2.7l-80,46.1c-14,8.1-31.6,8.1-45.8,0l-39-22.6-102.9-59.5h.6v.3l-.2.2Z"/>
  </g>
  <g>
    <path class="st0" d="M87.4,259.9c1-6.6,1-16.3,0-23.2H5.6v113.4h81.8c1-6.6,1-16.6,0-23.2h-52.7v-22.1h51.1c1-6.6,1-16.3,0-22.9h-51.1v-21.8h52.7v-.3.2Z"/>
    <path class="st0" d="M172.8,287l-24-6.8c-13.7-3.9-16.3-4.8-16.3-10.5v-3.9c0-6.6,7.7-7.4,19-7.4s22.3.6,38.4,3.2c1-6.6,1-16.6,0-23.2-15.2-3.2-26.4-3.9-39-3.9-27.9,0-47.2,7.1-47.2,26.8v11.6c0,17.6,7.7,23.5,18.7,26.4l27.7,7.7c11,2.9,12.4,3.2,12.4,8.9v5c0,6.6-8.1,7.4-18.4,7.4s-24-1-39.8-2.7c-1,6.6-1,17.6,0,24,14,1.8,28.9,2.4,40.5,2.4,29.2,0,47.1-7.4,47.1-26.8v-13.1c0-17.6-7.1-22.1-18.4-25.6h-.3l-.3.3Z"/>
    <path class="st0" d="M283.1,236.5v69.7l-42.2-69.7c-10.2-.6-21.1-.6-31.3,0v113.4c9.2,1,20,1,29.2,0v-67.9l41.6,67.9c10.6.6,21.1.6,31.8,0v-113.4c-9.5-.6-18.7-.6-29.2,0h.2Z"/>
    <path class="st0" d="M498.5,236.8h-51.1v113.4h51.1c30,0,48.9-7.7,48.9-30.6v-52.4c0-22.9-18.7-30.3-48.5-30.3h-.3ZM517.9,314.1c0,9.8-8.9,11.6-19.3,11.6h-22.1v-64.5h22.1c10.6,0,19.3,1.8,19.3,11.9v41.1-.2Z"/>
    <path class="st0" d="M392.9,236.5h-26.8c-4.8,0-9.8,0-13.1.6l-30,113.4c8.7.6,21.4.6,29.8,0l4.5-20.8h44.3l4.5,20.8c8.4.6,21.1.6,29.8,0l-30-113.4c-3.5,0-8.7-.3-13.4-.6h.6-.5ZM373.6,259.4h12.3l2.7,10.2,8.4,36.6h-34.2l8.4-36.6,2.7-10.2h-.3Z"/>
    <path class="st0" d="M262.3,180.6h70.5c10.5,0,19-2.7,25-8.1,10.5,5.6,19.3,7.7,31.6,8.1h5c10.5,0,19-2.7,25-8.1,10.5,5.6,19.3,7.7,31.6,8.1h5c19.7,0,32.7-9.2,32.7-28.2v-60.6c-6.8-1-22.1-1-28.9,0v55.6c0,6-2.4,9.2-8.9,9.2h-4.5c-7.7,0-14.5-1-19.3-3.2h0v-52.4c-6.8-1-22.1-1-28.9,0v46.8c0,6-2.4,9.2-8.9,9.2h-4.5c-7.7,0-14.5-1-19.3-3.2h0v-52.4c-6.8-1-22.1-1-28.9,0v46.8c0,6-2.4,9.2-8.9,9.2h-70c-7.7,0-14.5-1-19.3-3.2h0v-61.3c-6.8-1-22.1-1-28.9,0v55.6c0,6-2.4,9.2-8.9,9.2h-37.2c-6.6,0-8.9-3.2-8.9-9.2V50.1c-6.8-1-22.1-1-28.9,0v103.2c0,19,13.1,28.2,32.7,28.2h47.1c10.5,0,19-2.7,25-8.1,10.5,5.6,19.3,7.7,31.6,8.1v-1h.3-.2Z"/>
    <path class="st0" d="M103.5,115.1c0-19.3-17.6-26.8-47.1-26.8s-26.4.6-40.5,2.4c-1,6.6-1,17.6,0,24,16.1-1.8,28.9-2.7,39.8-2.7s18.4,1,18.4,7.4v26.8c0,6-2.4,9.2-8.9,9.2H.8c-1,6.6-1,17.6,0,24h69.7c19.7,0,32.7-9.2,32.7-28.2v-36.3h.3v.2Z"/>
    <path class="st0" d="M548.2,206.7h-23.2v-6.6c0-2.9,3.9-3.2,8.7-3.2s6.8,0,12.3.6c.6-2.9.6-8.1,0-11.3-5.6-.6-6.8-.6-12.3-.6-13.7,0-22.1,3.5-22.1,12.4v20h36.6c.6-3.2.6-8.4,0-11.3Z"/>
    <path class="st0" d="M544.6,176.4V49c-6.8-1-22.1-1-28.9,0v127.4c6.8,1,22.1,1,28.9,0Z"/>
    <path class="st0" d="M238.4,71.7v-22.6c-6.8-1-22.1-1-28.9,0v22.6c6.8,1,22.1,1,28.9,0Z"/>
  </g>
</svg>