<?xml version="1.0" encoding="UTF-8"?>
<svg id="Layer_2" data-name="Layer 2" xmlns="http://www.w3.org/2000/svg" xmlns:xlink="http://www.w3.org/1999/xlink" viewBox="0 0 590.6 196.34">
  <defs>
    <style>
      .cls-1 {
        fill: #fff;
      }

      .cls-2 {
        fill: #2563eb;
      }

      .cls-3, .cls-4 {
        fill: none;
      }

      .cls-4 {
        clip-path: url(#clippath);
      }
    </style>
    <clipPath id="clippath">
      <rect class="cls-3" y="26.96" width="142.31" height="150.22"/>
    </clipPath>
  </defs>
  <g id="Layer_1-2" data-name="Layer 1">
    <g class="cls-4">
      <path class="cls-1" d="m106.36,125.31c-1.89-1.78-3.68-3.7-5.33-5.7-18.48-21.76-20.06-55.5-3.57-78.83-8.87-5.61-18.72-9.82-29.22-12.32-15.04,24.98-17.66,56.77-7.15,83.94,1.17,3.07,2.5,5.39,3.98,8.32,13.18,4.55,27.49,7,42.14,5.36-.28-.25-.55-.51-.83-.77h-.02Z"/>
      <path class="cls-1" d="m20.96,126.95c-32.51,6.2-24.1,54.7,8.59,49.6,32.51-6.2,24.1-54.7-8.59-49.6Z"/>
      <path class="cls-1" d="m141.44,107.76c-1.33-8.52-3.7-16.57-7.15-24.35-43.07,31.41-106.35-2.74-103.24-56.45C20.17,28.62,9.64,32.15.01,37.33c3.97,69.01,83.43,111.09,142.29,77.88-.2-2.51-.48-4.99-.86-7.45h0Z"/>
      <path class="cls-2" d="m140.56,142.44c-2.2,10.6-6.13,20.55-11.48,29.57-24.09-5.68-45.69-21-59.02-41.84,14.35,3.83,29.78,4.5,44.63,1.84,7.76,5.29,16.62,8.87,25.88,10.42h-.01Z"/>
    </g>
    <g>
      <path class="cls-1" d="m194.49,141.02c0-17.4,11.88-30.36,27.96-30.36,6.48,0,12.12,2.28,16.08,6v-4.8h18v58.32h-18v-4.8c-3.96,3.72-9.6,6-16.08,6-16.08,0-27.96-12.96-27.96-30.36Zm44.76,0c0-8.16-5.28-13.8-12.96-13.8s-13.2,5.76-13.2,13.8,5.52,13.8,13.08,13.8,13.08-5.64,13.08-13.8Z"/>
      <path class="cls-1" d="m265.65,139.46c0-16.32,11.64-28.8,27.72-28.8,6,0,11.28,1.92,15.24,5.16v-3.96h18v54.84c0,18-13.56,29.64-32.4,29.64-12.72,0-22.68-4.56-28.32-12.6l11.28-11.28c4.2,4.92,9.12,7.56,16.44,7.56,9.12,0,14.64-4.68,14.64-12.84v-3.72c-3.84,3.12-9,4.92-14.88,4.92-16.08,0-27.72-12.6-27.72-28.92Zm43.68,0c0-7.2-4.8-12.72-12.48-12.72s-12.6,5.64-12.6,12.72,5.04,12.6,12.6,12.6,12.48-5.4,12.48-12.6Z"/>
      <path class="cls-1" d="m335.73,141.02c0-17.4,13.56-30.48,31.32-30.48s29.4,12.24,29.4,29.16c0,2.16-.24,4.32-.84,7.32l-41.76.12c1.92,6.48,6.96,10.2,14.4,10.2,5.76,0,10.44-1.92,13.92-6l10.08,10.08c-5.76,6.72-14.04,10.08-23.88,10.08-18.96,0-32.64-12.72-32.64-30.48Zm18.12-6.48l25.44-.12c-1.44-6.48-5.52-9.84-12.12-9.84s-11.52,3.72-13.32,9.96Z"/>
      <path class="cls-1" d="m405.33,111.86h18.36v4.68c4.08-3.72,9.84-5.88,16.32-5.88,12.84,0,22.2,10.2,22.2,22.2v37.32h-18.36v-33.24c0-6.12-4.2-10.2-9.96-10.2s-10.2,4.08-10.2,10.2v33.24h-18.36v-58.32Z"/>
      <path class="cls-1" d="m470.13,141.02c0-17.4,13.92-30.48,32.28-30.48,9,0,16.8,3.24,22.68,9.36l-11.76,11.76c-2.64-3-6.24-4.44-10.92-4.44-7.8,0-13.56,5.52-13.56,13.68s5.76,13.92,13.56,13.92c4.92,0,8.52-1.68,11.28-4.8l11.64,11.76c-6.12,6.36-13.8,9.72-23.16,9.72-18.12,0-32.04-13.08-32.04-30.48Z"/>
      <path class="cls-1" d="m549.69,166.22l-22.2-54.36h19.8l11.64,35.52,11.88-35.52h19.8l-24.96,58.56-10.32,24.36h-18.84l13.2-28.56Z"/>
    </g>
    <g>
      <path class="cls-2" d="m195.55,57.36c0-17.4,13.56-30.48,31.32-30.48s29.4,12.24,29.4,29.16c0,2.16-.24,4.32-.84,7.32l-41.76.12c1.92,6.48,6.96,10.2,14.4,10.2,5.76,0,10.44-1.92,13.92-6l10.08,10.08c-5.76,6.72-14.04,10.08-23.88,10.08-18.96,0-32.64-12.72-32.64-30.48Zm18.12-6.48l25.44-.12c-1.44-6.48-5.52-9.84-12.12-9.84s-11.52,3.72-13.32,9.96Z"/>
      <path class="cls-2" d="m257.83,28.2h19.8l12.48,36.24,12.48-36.24h19.44l-24.72,58.2-14.76.12-24.72-58.32Z"/>
      <path class="cls-2" d="m327.91,10.08c0-5.64,4.2-10.08,9.96-10.08s9.84,4.44,9.84,10.08-4.08,10.08-9.84,10.08-9.96-4.44-9.96-10.08Zm.72,18.12h18.36v58.32h-18.36V28.2Z"/>
      <path class="cls-2" d="m356.11,57.36c0-17.4,13.92-30.48,32.28-30.48,9,0,16.8,3.24,22.68,9.36l-11.76,11.76c-2.64-3-6.24-4.44-10.92-4.44-7.8,0-13.56,5.52-13.56,13.68s5.76,13.92,13.56,13.92c4.92,0,8.52-1.68,11.28-4.8l11.64,11.76c-6.12,6.36-13.8,9.72-23.16,9.72-18.12,0-32.04-13.08-32.04-30.48Z"/>
      <path class="cls-2" d="m414.19,57.24c0-17.28,13.68-30.36,31.92-30.36s31.92,13.08,31.92,30.36-13.68,30.6-31.92,30.6-31.92-13.32-31.92-30.6Zm45.12,0c0-8.16-5.4-13.68-13.2-13.68s-13.2,5.64-13.2,13.8,5.4,13.8,13.2,13.8,13.2-5.64,13.2-13.92Z"/>
    </g>
  </g>
</svg>